<svg width="26" height="26" viewBox="0 0 26 26" fill="none" xmlns="http://www.w3.org/2000/svg">
<path d="M14.0834 2.19917V4.3875C18.8393 4.9725 22.2084 9.295 21.6234 14.0508C21.1251 17.9942 18.0268 21.125 14.0834 21.5908V23.7575C20.0418 23.1617 24.3751 17.875 23.7793 11.9167C23.2918 6.77083 19.2076 2.70833 14.0834 2.19917ZM11.9168 2.23167C9.80428 2.4375 7.78928 3.25 6.14261 4.615L7.69178 6.21833C8.90511 5.24333 10.3676 4.615 11.9168 4.39833V2.23167ZM4.61511 6.1425C3.26143 7.7868 2.42797 9.79692 2.22095 11.9167H4.38761C4.59345 10.3783 5.20011 8.91583 6.16428 7.69167L4.61511 6.1425ZM2.23178 14.0833C2.44845 16.2067 3.28261 18.2108 4.62595 19.8575L6.16428 18.3083C5.20753 17.0838 4.59763 15.6245 4.39845 14.0833H2.23178ZM7.69178 19.9008L6.14261 21.385C7.78383 22.7526 9.79276 23.6044 11.9168 23.8333V21.6667C10.3756 21.4675 8.91633 20.8576 7.69178 19.9008ZM13.5418 7.58333V13.2708L18.4168 16.1633L17.6043 17.4958L11.9168 14.0833V7.58333H13.5418Z" fill="#4E4E4E"/>
</svg>
