<svg width="49" height="49" viewBox="0 0 49 49" fill="none" xmlns="http://www.w3.org/2000/svg">
<circle cx="24.5" cy="24.5" r="24.5" transform="matrix(-1 0 0 1 49 0)" fill="url(#paint0_linear_71_152)" fill-opacity="0.2"/>
<path d="M22 25C21.7167 25 21.4793 24.904 21.288 24.712C21.0967 24.52 21.0007 24.2827 21 24C20.9993 23.7173 21.0953 23.48 21.288 23.288C21.4807 23.096 21.718 23 22 23C22.282 23 22.5197 23.096 22.713 23.288C22.9063 23.48 23.002 23.7173 23 24C22.998 24.2827 22.902 24.5203 22.712 24.713C22.522 24.9057 22.2847 25.0013 22 25ZM26 25C25.7166 25 25.4793 24.904 25.288 24.712C25.0966 24.52 25.0006 24.2827 25 24C24.9993 23.7173 25.0953 23.48 25.288 23.288C25.4806 23.096 25.718 23 26 23C26.282 23 26.5196 23.096 26.713 23.288C26.9063 23.48 27.002 23.7173 27 24C26.998 24.2827 26.902 24.5203 26.712 24.713C26.522 24.9057 26.2846 25.0013 26 25ZM30 25C29.7166 25 29.4793 24.904 29.288 24.712C29.0966 24.52 29.0006 24.2827 29 24C28.9993 23.7173 29.0953 23.48 29.288 23.288C29.4806 23.096 29.718 23 30 23C30.282 23 30.5196 23.096 30.713 23.288C30.9063 23.48 31.002 23.7173 31 24C30.998 24.2827 30.902 24.5203 30.712 24.713C30.522 24.9057 30.2846 25.0013 30 25ZM29.95 35C27.8666 35 25.8043 34.55 23.763 33.65C21.7217 32.75 19.8673 31.4667 18.2 29.8C16.5327 28.1333 15.2493 26.2833 14.35 24.25C13.4507 22.2167 13.0007 20.15 13 18.05V17H18.9L19.825 22.025L16.975 24.9C17.3417 25.55 17.75 26.1667 18.2 26.75C18.65 27.3333 19.1333 27.875 19.65 28.375C20.1333 28.8583 20.6627 29.321 21.238 29.763C21.8133 30.205 22.434 30.6173 23.1 31L26 28.1L31 29.125V35H29.95Z" fill="#C02222"/>
<defs>
<linearGradient id="paint0_linear_71_152" x1="4.21488e-08" y1="21.9479" x2="31.6458" y2="21.9479" gradientUnits="userSpaceOnUse">
<stop/>
<stop offset="1" stop-opacity="0"/>
</linearGradient>
</defs>
</svg>
