<svg width="20" height="25" viewBox="0 0 20 25" fill="none" xmlns="http://www.w3.org/2000/svg">
<path d="M10.5626 6.67113C9.85689 6.55205 9.13164 6.66036 8.49156 6.98042C7.85148 7.30048 7.32971 7.81571 7.0016 8.45171C6.6735 9.0877 6.55604 9.81152 6.66621 10.5186C6.77638 11.2257 7.10846 11.8795 7.6145 12.3856C8.12053 12.8916 8.77432 13.2237 9.48143 13.3338C10.1885 13.444 10.9124 13.3266 11.5484 12.9985C12.1843 12.6703 12.6996 12.1486 13.0196 11.5085C13.3397 10.8684 13.448 10.1432 13.3289 9.4375" stroke="#4E4E4E" stroke-width="1.5" stroke-linecap="round"/>
<path d="M2.125 15.868C1.39712 14.0073 1 12.0261 1 10.1609C1 5.10175 5.02975 1 10 1C14.9703 1 19 5.10175 19 10.1609C19 15.1806 16.1279 21.0396 11.6459 23.1333C11.1307 23.3745 10.5688 23.4995 10 23.4995C9.43116 23.4995 8.86928 23.3745 8.35412 23.1333C6.92312 22.465 5.65525 21.412 4.59325 20.125" stroke="#4E4E4E" stroke-width="1.5" stroke-linecap="round"/>
</svg>
