<svg width="18" height="18" viewBox="0 0 18 18" fill="none" xmlns="http://www.w3.org/2000/svg">
<path d="M8.99998 8C8.71665 8 8.47932 7.904 8.28799 7.712C8.09665 7.52 8.00065 7.28267 7.99999 7C7.99932 6.71733 8.09532 6.48 8.28799 6.288C8.48065 6.096 8.71799 6 8.99998 6C9.28198 6 9.51965 6.096 9.71298 6.288C9.90632 6.48 10.002 6.71733 9.99998 7C9.99798 7.28267 9.90198 7.52033 9.71198 7.713C9.52198 7.90567 9.28465 8.00133 8.99998 8ZM13 8C12.7166 8 12.4793 7.904 12.288 7.712C12.0966 7.52 12.0006 7.28267 12 7C11.9993 6.71733 12.0953 6.48 12.288 6.288C12.4806 6.096 12.718 6 13 6C13.282 6 13.5196 6.096 13.713 6.288C13.9063 6.48 14.002 6.71733 14 7C13.998 7.28267 13.902 7.52033 13.712 7.713C13.522 7.90567 13.2846 8.00133 13 8ZM17 8C16.7166 8 16.4793 7.904 16.288 7.712C16.0966 7.52 16.0006 7.28267 16 7C15.9993 6.71733 16.0953 6.48 16.288 6.288C16.4806 6.096 16.718 6 17 6C17.282 6 17.5196 6.096 17.713 6.288C17.9063 6.48 18.002 6.71733 18 7C17.998 7.28267 17.902 7.52033 17.712 7.713C17.522 7.90567 17.2846 8.00133 17 8ZM16.95 18C14.8666 18 12.8043 17.55 10.763 16.65C8.72165 15.75 6.86732 14.4667 5.19999 12.8C3.53266 11.1333 2.24933 9.28333 1.35 7.25C0.450666 5.21667 0.000666666 3.15 0 1.05V0H5.89999L6.82499 5.025L3.97499 7.9C4.34166 8.55 4.74999 9.16667 5.19999 9.75C5.64999 10.3333 6.13332 10.875 6.64999 11.375C7.13332 11.8583 7.66265 12.321 8.23799 12.763C8.81332 13.205 9.43398 13.6173 10.1 14L13 11.1L18 12.125V18H16.95Z" fill="#999B9C"/>
</svg>
